<svg xmlns="http://www.w3.org/2000/svg" xmlns:xlink="http://www.w3.org/1999/xlink" width="1194.787" height="900.781" viewBox="0 0 1194.787 900.781">
  <defs>
    <clipPath id="clip-path">
      <path id="Path_193997" data-name="Path 193997" d="M1086.972,1398.985c-28.969-44.247-106.914-33.572-166.056-64v-84.367l-76.28-28.49L701.493,1206.2l-214.652-53.3-204.752-35.241L42.109,1295.244-65.9,1581.445l45.9,97.456a290.684,290.684,0,0,0,.822,48.97l-24.805,42.484,37.952,119.738L69.214,1921c-14.171,20.215-27.105,36.123-27.105,36.123l75.336,38.082,2.292-15.781c51.89,42.745,155.981,38.93,155.981,38.93,6.369-26.053,15.035-56.762,22.672-82.759,162.212-9.82,289.152-100.5,345.686-118.218,70.185-21.991,194.128-62.6,309.432-43.953S1196.871,1566.842,1086.972,1398.985Z" transform="translate(65.903 -1117.664)" fill="none"/>
    </clipPath>
    <linearGradient id="linear-gradient" x1="0.578" y1="-0.111" x2="0.355" y2="1.205" gradientUnits="objectBoundingBox">
      <stop offset="0.274" stop-color="#fcb300"/>
      <stop offset="0.373" stop-color="#fbac01"/>
      <stop offset="0.508" stop-color="#fb9b07"/>
      <stop offset="0.664" stop-color="#fa7e10"/>
      <stop offset="0.834" stop-color="#f9561d"/>
      <stop offset="1" stop-color="#f9292c"/>
    </linearGradient>
    <linearGradient id="linear-gradient-2" x1="-0.242" y1="0.854" x2="1" y2="0.21" gradientUnits="objectBoundingBox">
      <stop offset="0" stop-color="#84caff"/>
      <stop offset="1" stop-color="#698aff"/>
    </linearGradient>
  </defs>
  <g id="Group_17417" data-name="Group 17417" transform="translate(-407.825 -52.82)">
    <g id="Group_17198" data-name="Group 17198">
      <g id="Group_17197" data-name="Group 17197">
        <g id="Group_17195" data-name="Group 17195" transform="translate(407.825 52.82)">
          <g id="Group_17194" data-name="Group 17194" clip-path="url(#clip-path)">
            <g id="Group_17193" data-name="Group 17193" transform="translate(41.034 69.356)">
              <path id="Path_193908" data-name="Path 193908" d="M415.527,1777.364c-1.1-8.976-2.323-18.34-6.571-25.653s-12.534-11.721-18.8-7.312c-4.48,3.153-6.982,9.977-11.75,12.358-8.679,4.333-16.584-8.69-18.7-20.212s-3.043-25.385-11.1-31.347c-17.576-13.008-38.389,29.856-56.054,17.041-1.262-20.739-2.787-42.493-11.848-59.832s-28.328-27.99-42.4-17.313c-5.594,4.243-10.456,11.6-16.971,11.365-7.512-.272-12.261-10.794-12.983-20.28s.988-19.241-.793-28.5c-3.678-19.124-24.266-29.056-37.036-17.868-4.577,4.01-8.279,10.166-13.7,11.738-11.837,3.433-19.182-16.146-19.977-31.512-.429-8.292-.931-17.756-3.091-25.547-2.4,2.338-4.786,4.7-7.151,7.109-32.91,33.541-66.344,77.559-87.794,131.887C16.251,1740.622,3.9,1805.322,8.156,1864.931a221.713,221.713,0,0,0,91.6,84.02c20.411,10.082,42.3,16.954,64.12,14.451,18.409-2.113,35.9-10.768,53.11-19.334l206.378-102.743Q419.445,1809.344,415.527,1777.364Z" transform="translate(-3.13 -1350.221)" fill="#9ab4e9" opacity="0.47"/>
              <path id="Path_193909" data-name="Path 193909" d="M414.855,1359.967a573.954,573.954,0,0,0-245.613,114.919c-44.674,35.9-90.06,83.02-119.178,141.174-75.143,150.073-66.847,348.9,153.138,396.329s398.685-87.031,468.87-109.022,194.128-62.6,309.432-43.953S1194.1,1701.761,1084.2,1533.9C987.2,1385.756,686.179,1304.738,414.855,1359.967Z" transform="translate(-4.128 -1274.007)" fill="#476dcf" opacity="0.35"/>
              <g id="Group_17181" data-name="Group 17181" transform="translate(42.894 175.336)">
                <path id="Path_193910" data-name="Path 193910" d="M186.791,1688.3c-8.957-23.816-8.957-69.787-3.3-99.7s-14.143-74.772-49.028-74.772-54.686,44.863-49.028,74.772,5.657,75.879-3.3,99.7-22.157,69.787,0,95.539,52.329,27.974,52.329,27.974,30.171-2.222,52.328-27.974S195.748,1712.119,186.791,1688.3Z" transform="translate(-69.981 -1513.836)" fill="#7aabf6"/>
                <g id="Group_17196" data-name="Group 17196">
                  <rect id="Rectangle_6320" data-name="Rectangle 6320" width="2.856" height="251.753" transform="translate(63.054 53.136)" fill="#1649cc"/>
                  <path id="Path_193911" data-name="Path 193911" d="M162.312,1670.683l-16.972-18.277,1.93-2.473,16.972,18.277Z" transform="translate(-98.795 -1565.874)" fill="#1649cc"/>
                  <path id="Path_193912" data-name="Path 193912" d="M174.749,1722l-1.93-2.474,16.971-18.277,1.93,2.474Z" transform="translate(-109.302 -1585.494)" fill="#1649cc"/>
                  <path id="Path_193913" data-name="Path 193913" d="M162.312,1822.418l-16.972-18.277,1.93-2.474,16.972,18.277Z" transform="translate(-98.795 -1623.891)" fill="#1649cc"/>
                  <path id="Path_193914" data-name="Path 193914" d="M174.749,1873.732l-1.93-2.474,16.971-18.278,1.93,2.473Z" transform="translate(-109.302 -1643.511)" fill="#1649cc"/>
                </g>
              </g>
              <g id="Group_17182" data-name="Group 17182" transform="translate(720.73 35.107)">
                <path id="Path_193915" data-name="Path 193915" d="M1284.252,1461.264c-8.957-23.816-8.957-69.787-3.3-99.7s-14.143-74.772-49.028-74.772-54.686,44.863-49.029,74.772,5.657,75.88-3.3,99.7-22.157,69.786,0,95.538,52.329,27.974,52.329,27.974,30.171-2.222,52.328-27.974S1293.209,1485.08,1284.252,1461.264Z" transform="translate(-1167.441 -1286.796)" fill="#7aabf6"/>
                <rect id="Rectangle_6321" data-name="Rectangle 6321" width="2.856" height="251.753" transform="translate(63.054 53.136)" fill="#476dcf"/>
                <path id="Path_193916" data-name="Path 193916" d="M1259.773,1443.643l-16.972-18.277,1.93-2.474,16.972,18.277Z" transform="translate(-1196.256 -1338.834)" fill="#476dcf"/>
                <path id="Path_193917" data-name="Path 193917" d="M1272.21,1494.957l-1.93-2.474,16.971-18.277,1.93,2.474Z" transform="translate(-1206.762 -1358.454)" fill="#476dcf"/>
                <path id="Path_193918" data-name="Path 193918" d="M1259.773,1595.378,1242.8,1577.1l1.93-2.474L1261.7,1592.9Z" transform="translate(-1196.256 -1396.851)" fill="#476dcf"/>
                <path id="Path_193919" data-name="Path 193919" d="M1272.21,1646.693l-1.93-2.474,16.971-18.278,1.93,2.473Z" transform="translate(-1206.762 -1416.471)" fill="#476dcf"/>
              </g>
              <path id="Path_193920" data-name="Path 193920" d="M1430.915,1604.964c-18.393-28.093-44.13-53.77-75.6-76.564-12.874,11.639-12.239,37.217-25.285,51.12-2.188,2.332-5.02,4.4-8.217,4.4-2.815,0-5.357-1.588-7.669-3.194-8.618-5.987-16.655-13.08-26.371-17.042s-21.961-4.076-29.634,3.083c-11.075,10.334-7.677,30.067-18.252,40.911-19.837,20.341-56.21-13.349-81.478-.358-19.63,10.092-18.62,41.3-37.193,53.233-21.152,13.586-52.973-6.705-73.127,8.321-19.57,14.589-12.955,52.259-35.571,61.445-15.452,6.276-34.072-6.548-49.238.391-6.047,2.768-10.364,8.258-14.036,13.8-26.488,40-30.77,90.221-34.273,138.069-1.147,15.666-2.18,32.054,4.09,46.456,7.38,16.952,23.552,28.188,39.358,37.78q16.237,9.854,33,18.731a235.324,235.324,0,0,1,27.375-11.118c70.185-21.991,194.128-62.6,309.432-43.953S1540.814,1772.822,1430.915,1604.964Z" transform="translate(-349.845 -1344.068)" fill="#6691e3" opacity="0.41"/>
              <g id="Group_17183" data-name="Group 17183" transform="translate(995.541 196.229)">
                <path id="Path_193921" data-name="Path 193921" d="M1715.29,1717.488c-7.892-23.182-7.892-67.93-2.907-97.043s-12.46-72.782-43.2-72.782-48.179,43.669-43.195,72.782,4.984,73.861-2.907,97.043-19.521,67.93,0,93,46.1,27.229,46.1,27.229,26.582-2.163,46.1-27.229S1723.182,1740.671,1715.29,1717.488Z" transform="translate(-1612.378 -1547.663)" fill="#476dcf"/>
                <rect id="Rectangle_6322" data-name="Rectangle 6322" width="2.516" height="245.055" transform="translate(55.552 51.722)" fill="#7aabf6"/>
                <path id="Path_193922" data-name="Path 193922" d="M1693.724,1700.337l-14.952-17.791,1.7-2.408,14.953,17.791Z" transform="translate(-1637.764 -1598.316)" fill="#7aabf6"/>
                <path id="Path_193923" data-name="Path 193923" d="M1704.681,1750.285l-1.7-2.408,14.952-17.791,1.7,2.408Z" transform="translate(-1647.021 -1617.414)" fill="#7aabf6"/>
                <path id="Path_193924" data-name="Path 193924" d="M1693.724,1848.035l-14.952-17.791,1.7-2.408,14.953,17.791Z" transform="translate(-1637.764 -1654.79)" fill="#77a8f5"/>
                <path id="Path_193925" data-name="Path 193925" d="M1704.681,1897.984l-1.7-2.408,14.952-17.792,1.7,2.407Z" transform="translate(-1647.021 -1673.888)" fill="#7aabf6"/>
              </g>
              <path id="Path_193926" data-name="Path 193926" d="M1347.414,2022.7c-.191-.58-.372-1.163-.568-1.743-7.059-20.918-23.3-44.421-45.027-40.507-27.512,4.957-40.859,51.228-67.479,42.693-23.367-7.492-25.546-52.869-49.676-48.405-11.452,2.119-16.527,15.179-21.181,25.855-5.21,11.951-17.54,25.094-29.7,15.74a20.514,20.514,0,0,1-3.922-4.082l-38.278-51.652a19.2,19.2,0,0,0-6.559-5.706c-15.132-7.788-26.392,12.685-39.559,22.169-18.9,13.614-48.385,1.284-57.33-20.223-2.933-7.049-4.428-15.157-10.043-20.33-10.031-9.239-26.8-3.39-36.417,6.28s-16,22.6-27.214,30.363c-16.866,11.686-42.815,7.067-54.613-9.722-7.727-11-11.652-27.357-24.795-30.167-10.214-2.184-19.874,5.919-25.333,14.825s-8.761,19.3-16.048,26.788c-10.27,10.546-27.961,12.857-40.6,5.3-16.542-9.888-24.987-34.072-44.232-35.092-12.662-.671-23.09,9.768-29.954,20.43a122.61,122.61,0,0,0-19.323,61.509c-1.379,37.475-10.946,74.453-9.262,111.917,1.418,31.553,5.766,64.3,18.97,92.531,115.261-29.222,203.9-88.781,248.571-102.778,70.185-21.991,194.128-62.6,309.432-43.953C1274.8,2092.43,1319.256,2067,1347.414,2022.7Z" transform="translate(-248.905 -1498.339)" fill="#2759d9" opacity="0.54"/>
              <path id="Path_193927" data-name="Path 193927" d="M644.23,2096.877a245.166,245.166,0,0,0-22.665-79.65c-6.931-14.429-17.36-29.635-33.207-31.891-34.261-4.877-58.654,53.118-90.534,39.654-24.712-10.437-20.714-54.164-46.145-62.7-32.978-11.072-53.934,52.643-87.858,44.939-14.7-3.336-22.6-18.911-28.536-32.764l-36.616-85.489,0,0c-22.058-.545-27.844,33.708-48.4,41.736-21.858,8.538-41.1-16.576-51.264-37.729l-22.651-47.151c-2.768-5.761-5.792-11.819-11.188-15.245-11.741-7.454-27.377,1.628-35.493,12.922-8.956,12.462-14.118,28.252-27.973,35.968A20.816,20.816,0,0,1,86.4,1881.73c-19.661-5.095-15.809-36.5-28.9-52.747A29.064,29.064,0,0,0,40.342,1819C-23.884,1966.084-6.776,2149.29,203.2,2194.563,398.341,2236.638,560.989,2135.591,644.23,2096.877Z" transform="translate(-3.129 -1455.182)" fill="#6691e3" opacity="0.4"/>
              <g id="Group_17184" data-name="Group 17184" transform="translate(3.75 339.434)">
                <path id="Path_193928" data-name="Path 193928" d="M93.145,1850.832h0a53.451,53.451,0,0,0-17.371,22.538,50.394,50.394,0,0,0-3.259,13.451,54.737,54.737,0,0,0,.406,14.52l-3.228-7.451c-.978-2.232-2.078-4.852-3.329-7.628l-3.947-8.687-2-4.413-2.022-4.237-3.585-7.512c-1.034-2.206-1.957-4.015-2.6-5.284s-1-2-1-2a52.387,52.387,0,0,0,10.413-11.077,43.573,43.573,0,0,0,6.2-13.062,47.957,47.957,0,0,0,1.717-14.665,59.1,59.1,0,0,0-3.089-15.753h0A53.346,53.346,0,0,0,50.9,1823.487a51.491,51.491,0,0,0-2.316,13.708,54.737,54.737,0,0,0,.262,7.136,57.6,57.6,0,0,0,1.119,7.341l-2.032-4.043c-1.19-2.441-2.918-5.623-4.609-8.824-1.71-3.191-3.365-6.412-4.7-8.779l-2.216-3.946a47.141,47.141,0,0,0-7.052-28.225,46.417,46.417,0,0,0-9.614-10.732,53.807,53.807,0,0,0-13.145-7.6h0A57.448,57.448,0,0,0,8.748,1794.4a48.713,48.713,0,0,0,5.495,12.868c4.749,7.916,11.819,14.431,20.991,19.472l1.214,2.162c.776,1.374,1.886,3.335,3.135,5.735,2.524,4.786,5.974,11.122,9.153,17.6,1.6,3.233,3.283,6.425,4.716,9.489l3.981,8.343c1.174,2.438,2.135,4.477,2.774,5.921l1.027,2.258a48.49,48.49,0,0,0-10.571-9.826,42.362,42.362,0,0,0-12.3-5.873c-8.72-2.543-18.178-2.4-28.03.5h0a52.391,52.391,0,0,0,10.617,9.943,49.074,49.074,0,0,0,12.391,6.4,53.805,53.805,0,0,0,29.032,1.36l3.35,7.383c1.918,4.47,4.551,10.4,7.055,16.383,2.469,6,5,11.97,6.756,16.51l2.988,7.538a52.232,52.232,0,0,0-9.96-10.452,45.474,45.474,0,0,0-11.952-6.645,44.543,44.543,0,0,0-13.463-2.718,55.21,55.21,0,0,0-14.609,1.295h0a54.939,54.939,0,0,0,4.763,5.8,53.8,53.8,0,0,0,5.257,4.96,49.04,49.04,0,0,0,12.04,7.223,52.778,52.778,0,0,0,28.931,3.1l2.881,7.58c1.759,4.537,3.979,10.632,6.2,16.729s4.32,12.234,5.95,16.819l2.6,7.682a50.088,50.088,0,0,0-9.459-10.922,44.706,44.706,0,0,0-11.581-7.265c-8.376-3.573-17.837-4.6-27.969-2.96h0a53.035,53.035,0,0,0,9.48,11.367,47.319,47.319,0,0,0,11.661,7.883,52.512,52.512,0,0,0,28.749,4.5s1.056,3.068,2.548,7.7l2.576,7.9,2.866,9.088c1.968,6.182,3.8,12.406,5.224,17.059l2.286,7.781c-10.318-17.39-27.7-25.693-48.1-23.295h0c10.3,17.948,27.619,27.36,48.873,25.935l3.768,13.254c2.214,7.966,5.1,18.606,7.822,29.287s5.3,21.4,7.123,29.462,2.933,13.453,2.933,13.453l1.329-.267s-.778-3.83-2.051-9.543-3.041-13.313-4.894-20.893c-3.676-15.166-7.768-30.225-7.768-30.225,18.875-9.709,28.73-27.568,26.616-49.459h0c-18.075,9.922-27.626,26.649-27.331,46.8,0,0-3.4-12.537-7.055-25-3.616-12.476-7.52-24.865-7.52-24.865,9.22-5.244,16.172-12.4,20.346-21,4.222-8.6,5.726-18.648,4.217-29.559h0a52.551,52.551,0,0,0-19.717,20.432,50.324,50.324,0,0,0-4.646,13.018,57.269,57.269,0,0,0-1.027,14.479s-3.878-12.4-8.056-24.7c-2.052-6.162-4.209-12.289-5.829-16.883-1.6-4.6-2.731-7.646-2.731-7.646,8.982-5.64,15.59-13.1,19.394-21.9a47.735,47.735,0,0,0,3.6-14.137,57.218,57.218,0,0,0-.821-15.7h0a51.162,51.162,0,0,0-23.12,49.151l-2.784-7.626c-1.735-4.552-4-10.638-6.373-16.686-2.405-6.034-4.75-12.092-6.653-16.577l-3.107-7.5a48.293,48.293,0,0,0,18.186-22.919,45.133,45.133,0,0,0,2.767-14.382A53.8,53.8,0,0,0,93.145,1850.832Z" transform="translate(-6.604 -1779.52)" fill="#476dcf"/>
              </g>
              <path id="Path_193929" data-name="Path 193929" d="M421.9,2224.058s-25.74,81.574-39.983,139.842c0,0-126.408,4.636-170.065-53.51l22.454-165.317,18.128-115.24,144.793-8.456Z" transform="translate(-81.334 -1532.563)" fill="#fff"/>
              <path id="Path_193930" data-name="Path 193930" d="M712.659,2335.065s-17.229-27.931-10.714-65.016,15.035-32.611,19.044-58.652,26.059-35.563,36.583-46.588,18.041-41.6,20.046-54.625,22.05-48.11,39.59-38.087-6.515,43.6-13.03,67.655,1.5,55.126,9.021,65.149,12.027,36.255.5,49.449-26.56,16.7-27.563,31.736,10.023,42.1-17.039,59.135S712.659,2335.065,712.659,2335.065Z" transform="translate(-268.162 -1551.276)" fill="#476dcf"/>
              <path id="Path_193931" data-name="Path 193931" d="M749.868,2429.022l-.9-.012c1.356-94.682,56.542-236.146,57.1-237.564l.841.33C806.348,2193.193,751.221,2334.506,749.868,2429.022Z" transform="translate(-286.702 -1597.59)" fill="#fff"/>
              <path id="Path_193932" data-name="Path 193932" d="M1421.864,1945.133s13.716-102.314,47.288-188.4,50.359-104.8,50.359-104.8,21.822,21.479,11.75,57.866,18.74,48.1,2.655,92.6,10.672,87.639-27.376,132.407C1480.387,1965.583,1436.685,1974.538,1421.864,1945.133Z" transform="translate(-551.992 -1377.376)" fill="#1649cc"/>
              <g id="Group_17185" data-name="Group 17185" transform="translate(224.223 19.184)">
                <path id="Path_193934" data-name="Path 193934" d="M403.322,1318.713h0A40.165,40.165,0,0,1,381.227,1294a45.217,45.217,0,0,1-1.686-8.31q-.113-1.054-.175-2.112c-.028-.71-.031-1.424-.022-2.136q.032-2.136.272-4.259a41.771,41.771,0,0,1,.693-4.2,36.876,36.876,0,0,1,1.222-4.139,39.443,39.443,0,0,1,3.79-7.819h0a46.568,46.568,0,0,1,19.8,25.429,45.574,45.574,0,0,1-1.8,32.269Z" transform="translate(-369.597 -1261.015)" fill="#7aabf6"/>
                <path id="Path_193935" data-name="Path 193935" d="M442.7,1382.14h0a39.861,39.861,0,0,1-8.378-31.44,39.342,39.342,0,0,1,5.929-15.08,41.224,41.224,0,0,1,12.028-11.786h0a41.229,41.229,0,0,1,6.694,30.183,43.33,43.33,0,0,1-1.962,7.758A45.1,45.1,0,0,1,442.7,1382.14Z" transform="translate(-390.422 -1285.034)" fill="#7aabf6"/>
                <path id="Path_193936" data-name="Path 193936" d="M413.789,1397.305h0a45.844,45.844,0,0,0-18.2-27.462,46.89,46.89,0,0,0-14.943-7.228,44.193,44.193,0,0,0-17.084-1.427h0a43.805,43.805,0,0,0,17.885,29.576,42.854,42.854,0,0,0,7.322,4.155,40.421,40.421,0,0,0,25.017,2.387Z" transform="translate(-363.565 -1299.21)" fill="#7aabf6"/>
                <path id="Path_193937" data-name="Path 193937" d="M485.44,1464.545h0a40.48,40.48,0,0,1-10.893-30.723,41.114,41.114,0,0,1,1.419-8.018,40.32,40.32,0,0,1,3.059-7.616,41.233,41.233,0,0,1,10.757-13.01h0a41.525,41.525,0,0,1,9.636,29.967,44.524,44.524,0,0,1-13.979,29.4Z" transform="translate(-405.958 -1316.137)" fill="#7aabf6"/>
                <path id="Path_193938" data-name="Path 193938" d="M456.3,1483.155h0a45.843,45.843,0,0,0-35.816-31.617,44.17,44.17,0,0,0-17.1.361h0a43.638,43.638,0,0,0,20.21,27.349,40.986,40.986,0,0,0,32.7,3.907Z" transform="translate(-378.793 -1333.609)" fill="#7aabf6"/>
                <path id="Path_193939" data-name="Path 193939" d="M533.813,1544.3h0a40.719,40.719,0,0,1,.307-59.687h0a41.785,41.785,0,0,1,11.762,29.437A44.42,44.42,0,0,1,533.813,1544.3Z" transform="translate(-423.742 -1346.508)" fill="#7aabf6"/>
                <path id="Path_193940" data-name="Path 193940" d="M504.8,1565.107h0a45.046,45.046,0,0,0-54.771-27.526h0a43.416,43.416,0,0,0,21.9,25.725,41.066,41.066,0,0,0,32.87,1.8Z" transform="translate(-396.625 -1366.06)" fill="#7aabf6"/>
                <path id="Path_193941" data-name="Path 193941" d="M506.189,1509.36l-2.366,1.732-1.288-1.789c-.833-1.166-2.049-2.876-3.572-5.069-3.052-4.382-7.357-10.676-12.373-18.327-10.044-15.29-22.889-36.042-34.716-57.383-5.926-10.663-11.609-21.461-16.71-31.7s-9.555-19.949-13.261-28.32c-3.651-8.4-6.53-15.466-8.472-20.443l-3-7.843,2.749-1.019,2.983,7.795c1.93,4.949,4.794,11.979,8.426,20.333,3.689,8.33,8.133,17.989,13.2,28.193s10.743,20.955,16.648,31.581c11.786,21.267,24.593,41.959,34.6,57.2,5,7.626,9.289,13.9,12.326,18.258,1.516,2.183,2.726,3.883,3.551,5.04Z" transform="translate(-381.484 -1290.909)" fill="#7aabf6"/>
              </g>
              <g id="Group_17186" data-name="Group 17186" transform="translate(339.269 27.292)">
                <path id="Path_193942" data-name="Path 193942" d="M611.372,1323.005h0a33.774,33.774,0,0,1-4.122-27.571,38.074,38.074,0,0,1,2.65-6.619q.408-.793.852-1.565c.308-.512.636-1.016.971-1.511q1.008-1.487,2.156-2.869a35.41,35.41,0,0,1,2.428-2.635,31.173,31.173,0,0,1,2.77-2.345,33.2,33.2,0,0,1,6.273-3.747h0a39.159,39.159,0,0,1,2.182,27.013,38.321,38.321,0,0,1-16.159,21.85Z" transform="translate(-571.299 -1274.143)" fill="#6893ff"/>
                <path id="Path_193943" data-name="Path 193943" d="M606.276,1389.328h0a33.517,33.517,0,0,1,8.622-25.965,33.077,33.077,0,0,1,11.127-7.863,34.669,34.669,0,0,1,13.894-2.734h0a34.668,34.668,0,0,1-9.225,24.3,36.428,36.428,0,0,1-4.96,4.547,37.923,37.923,0,0,1-19.458,7.71Z" transform="translate(-571.351 -1304.205)" fill="#6893ff"/>
                <path id="Path_193944" data-name="Path 193944" d="M589.572,1381.489h0a38.551,38.551,0,0,0-.116-27.7,39.436,39.436,0,0,0-7.167-11.977,37.159,37.159,0,0,0-11.349-8.888h0a36.834,36.834,0,0,0-1.079,29.042,35.97,35.97,0,0,0,3.229,6.3,33.982,33.982,0,0,0,16.482,13.224Z" transform="translate(-556.545 -1296.618)" fill="#6893ff"/>
                <path id="Path_193945" data-name="Path 193945" d="M598.686,1466.082h0a34.038,34.038,0,0,1,6.523-26.621,34.573,34.573,0,0,1,4.7-4.981,33.923,33.923,0,0,1,5.666-3.941,34.661,34.661,0,0,1,13.566-4.18h0a34.914,34.914,0,0,1-7.058,25.51,37.437,37.437,0,0,1-23.394,14.213Z" transform="translate(-568.316 -1332.344)" fill="#6893ff"/>
                <path id="Path_193946" data-name="Path 193946" d="M580.48,1461.776h0a38.55,38.55,0,0,0-10.581-38.753,37.14,37.14,0,0,0-12.182-7.636h0a36.7,36.7,0,0,0,1.582,28.55,34.465,34.465,0,0,0,21.181,17.839Z" transform="translate(-552.022 -1328.149)" fill="#6893ff"/>
                <path id="Path_193947" data-name="Path 193947" d="M596.323,1543.84h0a34.239,34.239,0,0,1,27.764-41.811h0a35.138,35.138,0,0,1-5.319,26.119A37.351,37.351,0,0,1,596.323,1543.84Z" transform="translate(-567.243 -1361.277)" fill="#6893ff"/>
                <path id="Path_193948" data-name="Path 193948" d="M577,1542.114h0a37.877,37.877,0,0,0-25.793-44.626h0a36.508,36.508,0,0,0,3.521,28.19A34.534,34.534,0,0,0,577,1542.114Z" transform="translate(-549.832 -1359.541)" fill="#6893ff"/>
                <path id="Path_193949" data-name="Path 193949" d="M596.3,1503.216l-2.463.125s-.028-.644-.08-1.852-.112-2.968-.172-5.212c-.122-4.489-.243-10.9-.238-18.591,0-15.383.547-35.9,2.083-56.355.757-10.229,1.745-20.442,2.886-29.993s2.492-18.432,3.75-26.026c1.309-7.586,2.548-13.885,3.48-18.279l1.51-6.9,2.4.552s-.545,2.493-1.5,6.856c-.927,4.369-2.158,10.632-3.461,18.18-1.252,7.558-2.586,16.4-3.733,25.909s-2.12,19.687-2.875,29.881c-1.531,20.388-2.08,40.842-2.077,56.174-.005,7.667.115,14.054.237,18.522.059,2.234.124,3.987.171,5.181S596.3,1503.216,596.3,1503.216Z" transform="translate(-566.471 -1299.376)" fill="#6893ff"/>
              </g>
              <g id="Group_17187" data-name="Group 17187" transform="translate(336.98)">
                <path id="Path_193950" data-name="Path 193950" d="M1170.495,1736.706l18.65,21.575-33.178,30.52-31.061-11.565Z" transform="translate(-767.427 -1423.716)" fill="#2759d9"/>
                <circle id="Ellipse_2660" data-name="Ellipse 2660" cx="16.668" cy="16.668" r="16.668" transform="translate(355.811 155.77) rotate(-38.804)" fill="#fcb300"/>
                <path id="Path_193951" data-name="Path 193951" d="M829.142,1554.689s-5.1,30.116,37.773,34.2a607.849,607.849,0,0,0,80.568,2.042s-6.554,35.221-15.232,60.232-11.74,38.283-11.74,38.283l24.5,3.063s19.483-39.3,32.966-68.91,15.015-43.387,2.254-55.127-75.546-18.376-75.546-18.376l-15.313-25.522Z" transform="translate(-654.267 -1342.605)" fill="#290133"/>
                <path id="Path_193952" data-name="Path 193952" d="M1025.909,1302.051a17.775,17.775,0,0,1,.6,8.47c-1.275,8.008-5.359,28.416-14.34,32.5-11.23,5.1-17.355-.51-23.48,0s-12.761,11.74-12.761,11.74l-19.4-18.376,17.355-14.8s7.657-23.48,23.48-27.053C1011.212,1291.4,1022.322,1291.4,1025.909,1302.051Z" transform="translate(-703.047 -1253.953)" fill="#fff"/>
                <path id="Path_193953" data-name="Path 193953" d="M996.247,1278.7s23.991,7.146,33.689,0,11.74-37.772-23.48-46.96-49,19.4-50.023,34.71,2.552,28.584,19.907,35.731S999.82,1297.073,996.247,1278.7Z" transform="translate(-702.949 -1229.955)" fill="#290133"/>
                <path id="Path_193954" data-name="Path 193954" d="M916.877,1357.114s-20.839-5.615-43.809,12.251-46.093,54.5-43.9,120.975c0,0,18.887,5.1,39.3,0a146.091,146.091,0,0,1,36.241-4.594s-.51-45.429,7.147-70.441S933.123,1371.917,916.877,1357.114Z" transform="translate(-654.294 -1278.256)" fill="#fcb300"/>
                <path id="Path_193955" data-name="Path 193955" d="M926.373,1364.521s-11.741,12.761,2.041,34.71,16.6,25.473,16.6,25.473l33.314-18.327s-8.643-24.8-19.582-39.708S930.275,1356.474,926.373,1364.521Z" transform="translate(-689.733 -1278.517)" fill="#fcb300"/>
                <path id="Path_193956" data-name="Path 193956" d="M717.276,1601.958s-24.914,6.133-49.416,27.061-34.808,56.575-34.808,56.575H624.5a11.769,11.769,0,0,0-11.769,11.769h0a5.552,5.552,0,0,0,5.4,5.55l132.932,3.693s-2.711,26.5,22.38,33.411H915.935s15.824-2.784,19.907-22.692,13.272-69.42,70.441-77.077c0,0,7.947-56.735-71.462-118.423v-17.355l-18.887-13.782s-7.065,16.844-6.339,34.71c0,0,25.226,36.752,21.653,86.775s-45.94,80.14-45.94,80.14H834.175l7.626-84.734S750.357,1581.022,717.276,1601.958Z" transform="translate(-571.592 -1329.649)" fill="#00278a"/>
                <path id="Path_193957" data-name="Path 193957" d="M980.477,1792.315a44.908,44.908,0,0,0-4.968,11.346,3.231,3.231,0,0,0,3.148,3.983H1014.1a1.7,1.7,0,0,0,.963-3.1l-14.052-9.662Z" transform="translate(-710.268 -1444.979)" fill="#290133"/>
                <path id="Path_193958" data-name="Path 193958" d="M1137.835,1821.847s6.194-54.1,43.36-70.2,73.092,6.607,81.763,35.1c0,0-30.971-11.549-62.561-2.677S1175.413,1823.912,1137.835,1821.847Z" transform="translate(-772.37 -1427.381)" fill="#1649cc"/>
                <ellipse id="Ellipse_2661" data-name="Ellipse 2661" cx="50.998" cy="48.17" rx="50.998" ry="48.17" transform="matrix(0.122, -0.993, 0.993, 0.122, 79.483, 439.62)" fill="#1649cc"/>
                <ellipse id="Ellipse_2662" data-name="Ellipse 2662" cx="22.323" cy="21.085" rx="22.323" ry="21.085" transform="translate(109.857 414.454) rotate(-83.007)" fill="#00278a"/>
                <ellipse id="Ellipse_2663" data-name="Ellipse 2663" cx="50.998" cy="48.17" rx="50.998" ry="48.17" transform="translate(383.582 439.62) rotate(-83.008)" fill="#00278a"/>
                <ellipse id="Ellipse_2664" data-name="Ellipse 2664" cx="22.323" cy="21.085" rx="22.323" ry="21.085" transform="translate(413.956 414.454) rotate(-83.008)" fill="#fff" opacity="0.43"/>
                <path id="Path_193959" data-name="Path 193959" d="M1247.634,1873.719a10.51,10.51,0,0,1-1.29-.08c-6.06-.743-10.351-6.555-9.567-12.956a11.481,11.481,0,0,1,11.124-10.341,10.521,10.521,0,0,1,1.29.08c6.061.744,10.352,6.556,9.566,12.956A11.481,11.481,0,0,1,1247.634,1873.719Zm.267-22.473a10.578,10.578,0,0,0-10.227,9.547c-.724,5.907,3.214,11.268,8.779,11.951a9.818,9.818,0,0,0,1.18.072,10.579,10.579,0,0,0,10.228-9.547c.725-5.906-3.214-11.267-8.779-11.951A9.836,9.836,0,0,0,1247.9,1851.246Z" transform="translate(-810.167 -1467.166)" fill="#d403f9"/>
                <path id="Path_193960" data-name="Path 193960" d="M1145.657,1451.367v41.821s-17.556,4.742-33.053-13.492V1467.23S1122.584,1451.367,1145.657,1451.367Z" transform="translate(-762.723 -1314.614)" fill="#00278a"/>
                <path id="Path_193961" data-name="Path 193961" d="M673.391,1628.683H546.125v8.441H680.1Z" transform="translate(-546.125 -1382.412)" fill="#290133"/>
                <path id="Path_193962" data-name="Path 193962" d="M594.771,1635.516l60.387,62.5,3.247-3.247-57.14-59.252Z" transform="translate(-564.725 -1385.025)" fill="#290133"/>
                <path id="Path_193963" data-name="Path 193963" d="M554.823,1466.642l2.6,100.083h112.3l1.948-100.083Z" transform="translate(-549.45 -1320.455)" fill="#0a35a5"/>
                <rect id="Rectangle_6323" data-name="Rectangle 6323" width="16.717" height="100.083" transform="translate(56.097 146.187)" fill="#fff" opacity="0.43"/>
                <path id="Path_193964" data-name="Path 193964" d="M963.9,1454.659s19.651,28.652,31.883,33.1,54.317-7.339,59.963-10.675,7.869-4,10.316-1.557,4.893,3.559,8.229,1.335-3.721-14.025-10.008-15.568-8.451,3.781-13.344,4.226-30.913.445-39.364-.668-19.681-25.593-19.681-25.593Z" transform="translate(-705.865 -1309.984)" fill="#fff"/>
                <circle id="Ellipse_2665" data-name="Ellipse 2665" cx="5.598" cy="5.598" r="5.598" transform="translate(351.803 162.909)" fill="#290133"/>
                <path id="Path_193965" data-name="Path 193965" d="M809.745,1609.24H754.828a13.951,13.951,0,0,0-13.955,14.83c.084,1.249.237,2.6.472,4.056,2.552,15.824,22.419,22.97,33.924,23.991s115.516,0,115.516,0,9.307-.511,12.37-9.7-2.042-15.823-16.334-28.074S809.745,1609.24,809.745,1609.24Z" transform="translate(-620.577 -1374.186)" fill="#1649cc"/>
              </g>
              <path id="Path_193966" data-name="Path 193966" d="M592.844,1769.447s48.016-57.123,69.54-75.335,35.6-25.664,48.016-20.7-4.139,48.016-24.836,77.819-48.844,65.4-48.844,65.4Z" transform="translate(-227.009 -1398.941)" fill="#fff"/>
              <rect id="Rectangle_6324" data-name="Rectangle 6324" width="428.516" height="220.108" rx="13" transform="translate(196.904 703.073) rotate(-90)" fill="#6691e3"/>
              <g id="Group_17188" data-name="Group 17188" transform="translate(187.164 264.816)">
                <path id="Path_193967" data-name="Path 193967" d="M517.343,1658.71H329.372a25.809,25.809,0,0,0-25.809,25.809V2080.9a25.809,25.809,0,0,0,25.809,25.809H517.343a25.809,25.809,0,0,0,25.809-25.809V1684.519A25.809,25.809,0,0,0,517.343,1658.71ZM533.411,2080.9a16.087,16.087,0,0,1-16.069,16.068H329.372A16.087,16.087,0,0,1,313.3,2080.9V1684.519a16.087,16.087,0,0,1,16.069-16.069h35.073v9.442a14.6,14.6,0,0,0,14.6,14.6h88.63a14.6,14.6,0,0,0,14.6-14.6v-9.442h35.073a16.087,16.087,0,0,1,16.069,16.069Z" transform="translate(-303.563 -1658.71)" fill="#290133"/>
              </g>
              <path id="Path_193968" data-name="Path 193968" d="M670.541,2055.284s25.038,18.38,25.745,41.71-17.674,35.647-31.813,43.627-26.157,10.808-35.348,5.152-.707-30.261,9.9-43.762,31.518-24.812,31.518-24.812Z" transform="translate(-239.382 -1545.527)" fill="#fff"/>
              <g id="Group_17189" data-name="Group 17189" transform="translate(708.788 224.242)">
                <path id="Path_193969" data-name="Path 193969" d="M1258.4,2183.724s-.007,83.332,0,103.294h68.312l1.927-84.357,5.276,84.3h67.148l-2.922-103.234Z" transform="translate(-1190.276 -1818.879)" fill="#290133"/>
                <path id="Path_193970" data-name="Path 193970" d="M1304.838,1684.031a25.122,25.122,0,0,1,.377-11.485h9.087v7.122l-.983,5.158-4.543,1.965Z" transform="translate(-1207.844 -1623.426)" fill="#471054"/>
                <path id="Path_193971" data-name="Path 193971" d="M1433.236,1684.031a25.111,25.111,0,0,0-.377-11.485h-9.087v7.122l.983,5.158,4.543,1.965Z" transform="translate(-1253.509 -1623.426)" fill="#471054"/>
                <path id="Path_193972" data-name="Path 193972" d="M1395.052,1843.426c-16.77-28.052-29.881-35.979-42.078-39.9s-28.778-12.225-28.772-11.934-5.988-3.28-5.988-3.28h-46.99s-5.994,3.571-5.988,3.28-16.576,8.013-28.772,11.934-25.307,11.849-42.077,39.9-24.7,42.992-24.7,42.992,25.917,21.039,44.517,28.662l13.721-14.025h133.586l13.721,14.025c18.6-7.622,44.517-28.662,44.517-28.662S1411.822,1871.477,1395.052,1843.426Z" transform="translate(-1156.358 -1667.689)" fill="#fcb300"/>
                <path id="Path_193973" data-name="Path 193973" d="M1337.219,1772.666s-8.83,4.721-12.833,12.943a70.914,70.914,0,0,0,7.126,19.026c5.481,10.038,9.425,19.359,9.425,19.359s5.8-11.182,9.366-14.016S1352.5,1777.983,1337.219,1772.666Z" transform="translate(-1215.508 -1661.707)" fill="#eaa200"/>
                <path id="Path_193974" data-name="Path 193974" d="M1389.964,1772.666s8.83,4.721,12.833,12.943a70.912,70.912,0,0,1-7.126,19.026c-5.48,10.038-9.424,19.359-9.424,19.359s-5.8-11.182-9.367-14.016S1374.681,1777.983,1389.964,1772.666Z" transform="translate(-1234.953 -1661.707)" fill="#eaa200"/>
                <path id="Path_193975" data-name="Path 193975" d="M1324.832,1967.216h-76.389l2.509,133.724h147.759l2.51-133.724Z" transform="translate(-1186.471 -1736.095)" fill="#00278a"/>
                <path id="Path_193976" data-name="Path 193976" d="M1350,1618.755h0a35.726,35.726,0,0,0-35.726,35.726v1.323s.441,25.582,10.145,42.783a38.476,38.476,0,0,0,17.7,16.537,19.139,19.139,0,0,0,15.769,0,38.479,38.479,0,0,0,17.7-16.537c9.7-17.2,10.144-42.783,10.144-42.783v-1.323A35.726,35.726,0,0,0,1350,1618.755Z" transform="translate(-1211.643 -1602.858)" fill="#fff"/>
                <path id="Path_193977" data-name="Path 193977" d="M1311.686,1691.551s-5.648-3.193-9.824,0-1.719,26.771,14.245,20.63S1311.686,1691.551,1311.686,1691.551Z" transform="translate(-1206.209 -1630.15)" fill="#fff"/>
                <path id="Path_193978" data-name="Path 193978" d="M1418.845,1691.551s5.649-3.193,9.824,0,1.719,26.771-14.245,20.63S1418.845,1691.551,1418.845,1691.551Z" transform="translate(-1247.6 -1630.15)" fill="#fff"/>
                <path id="Path_193979" data-name="Path 193979" d="M1387.472,1620.77c-2.595-11.543-15.066-27.753-41.864-27.753s-39.27,16.21-41.864,27.753a42.529,42.529,0,0,0,.876,21.368h5.359l5.939-2.21,18.175-13.263,11.516-12.035,11.516,12.035,18.175,13.263,5.939,2.21h5.359A42.529,42.529,0,0,0,1387.472,1620.77Z" transform="translate(-1207.247 -1593.017)" fill="#fcb300"/>
                <path id="Path_193980" data-name="Path 193980" d="M1348.57,1627.293c-4.4.571-27.812,4.806-36.164,30.9,0,0,4.2,3.5,10.287-1.569s12.875-15.467,26.595-15.467,20.51,10.4,26.6,15.467,10.288,1.569,10.288,1.569c-8.352-26.1-31.76-30.331-36.163-30.9A5.552,5.552,0,0,0,1348.57,1627.293Z" transform="translate(-1210.928 -1606.105)" fill="#eaa200"/>
                <path id="Path_193981" data-name="Path 193981" d="M1379.049,1748.7l-18.187-11.728h0l-18.186,11.728a120.179,120.179,0,0,1,2.037,16.366c.556,9.458,6.428,25.591,16.149,35.327h0c9.72-9.736,15.593-25.869,16.149-35.327A120.059,120.059,0,0,1,1379.049,1748.7Z" transform="translate(-1222.502 -1648.058)" fill="#fff"/>
                <path id="Path_193982" data-name="Path 193982" d="M1247.8,2096.817c-3.585-1.075-14.34-9.322-12.548-10.755s10.038-2.868,12.189-6.453c0,0,3.227-5.02-3.585-5.378s-14.34,1.792-20.793-2.151-30.474-57-32.983-68.834c-1.448-6.824,5.407-18.908,11.469-27.92-13.974-6.784-30.369-19.064-37.045-24.252-6.451,12.7-15.459,32.18-16.37,43.568-1.434,17.926,54.494,81.382,57,89.628s5.378,20.435,16.492,24.738,22.945,5.736,28.681,3.944,16.85-8.6,17.926-11.831S1251.384,2097.893,1247.8,2096.817Z" transform="translate(-1148.106 -1729.923)" fill="#fff"/>
                <path id="Path_193983" data-name="Path 193983" d="M1521.713,1994.642c-.911-11.387-9.919-30.87-16.37-43.568-6.675,5.188-23.071,17.468-37.044,24.252,6.062,9.012,12.916,21.1,11.469,27.92-2.51,11.831-26.53,64.891-32.983,68.834s-13.982,1.792-20.794,2.151-3.585,5.378-3.585,5.378c2.151,3.585,10.4,5.019,12.189,6.453s-8.963,9.68-12.547,10.755-21.511,1.076-20.435,4.3,12.189,10.038,17.925,11.831,17.567.358,28.681-3.944,13.982-16.492,16.491-24.738S1523.147,2012.567,1521.713,1994.642Z" transform="translate(-1245.019 -1729.923)" fill="#fff"/>
              </g>
              <g id="Group_17190" data-name="Group 17190" transform="translate(550.337 500.797)">
                <path id="Path_193986" data-name="Path 193986" d="M968.357,2061.82h0a36.455,36.455,0,0,0,.071,28.58,36.438,36.438,0,0,0,2.237,4.35,43.768,43.768,0,0,0,2.8,4.244l-1.193-.956c-.768-.6-1.823-1.5-3.167-2.493l-4.549-3.433c-1.664-1.256-3.428-2.611-5.26-3.873-3.637-2.562-7.236-5.178-10.054-6.967l-4.64-3.063a31.6,31.6,0,0,0,1.152-20.041A31.966,31.966,0,0,0,944,2053.4a33.393,33.393,0,0,0-2.64-4.475,39.232,39.232,0,0,0-3.435-4.251q-.956-1.031-2.008-2.028c-.715-.642-1.469-1.262-2.249-1.874h0a39.384,39.384,0,0,0-1.4,10.029,35.827,35.827,0,0,0,1.171,9.568,34.484,34.484,0,0,0,1.526,4.492c.305.731.639,1.447.992,2.162s.714,1.449,1.109,2.159a38.171,38.171,0,0,0,5.959,7.983l-8.456-5.178c-2.107-1.3-4.3-2.46-5.911-3.393l-2.7-1.522a31.927,31.927,0,0,0-6.307-8.19,34.026,34.026,0,0,0-3.86-3.16,30.547,30.547,0,0,0-4.315-2.368,33.17,33.17,0,0,0-4.629-1.69c-.794-.224-1.6-.422-2.411-.583q-1.24-.2-2.5-.318a36.576,36.576,0,0,0-10.374.567h0c8.325,11.89,19.609,17.4,33.954,16.553l5.373,3.03c1.627.883,3.463,2.018,5.433,3.23l6.181,3.784,6.049,3.993c1.935,1.268,3.737,2.457,5.233,3.548l5.036,3.563a34.217,34.217,0,0,0-9.589-2.235,30.1,30.1,0,0,0-9.267.854,29.181,29.181,0,0,0-4.364,1.489,31.269,31.269,0,0,0-4.183,2.254,37.571,37.571,0,0,0-7.606,6.514,42.969,42.969,0,0,0,9.508,1.962,34.354,34.354,0,0,0,9.4-.636,37.672,37.672,0,0,0,17.637-9.115s.457.313,1.227.9l3.209,2.422,4.538,3.424,5.089,4.071c3.5,2.733,6.837,5.655,9.385,7.8,1.271,1.074,2.33,1.969,3.045,2.626l1.137,1.017a32.262,32.262,0,0,0-9.341-3.169,30.65,30.65,0,0,0-4.66-.47,29.181,29.181,0,0,0-4.641.325,33.146,33.146,0,0,0-17.188,8.417h0a35.418,35.418,0,0,0,18.757,3.439,37.821,37.821,0,0,0,18.476-7.289l4.136,3.7c2.414,2.29,5.693,5.281,8.864,8.385s6.337,6.215,8.63,8.628l3.863,3.981a35.429,35.429,0,0,0-9.026-3.991,29.993,29.993,0,0,0-9.275-.986,29.606,29.606,0,0,0-9.158,1.945,37.652,37.652,0,0,0-8.791,4.813h0a36.338,36.338,0,0,0,4.49,2.278,35.342,35.342,0,0,0,4.565,1.656,34.778,34.778,0,0,0,9.413,1.277,37.294,37.294,0,0,0,19.064-5.615l3.781,4.059c1.147,1.206,2.427,2.667,3.817,4.214s2.887,3.186,4.327,4.875l4.254,4.938c1.35,1.583,2.575,3.09,3.643,4.366,2.139,2.551,3.516,4.291,3.516,4.291a31.325,31.325,0,0,0-17.832-6.471,33.547,33.547,0,0,0-18.472,5.207h0a38.625,38.625,0,0,0,8.729,4.716,33.865,33.865,0,0,0,18.967,1.432,39.679,39.679,0,0,0,9.785-3.416s9.5,11.727,18.11,24.112c4.333,6.171,8.481,12.469,11.477,17.262s4.844,8.069,4.844,8.069l.81-.452s-1.315-2.337-3.412-5.754-4.963-7.927-7.95-12.356c-5.929-8.892-12.331-17.45-12.331-17.45a32.569,32.569,0,0,0,8.275-18.254,31.11,31.11,0,0,0-.616-10.066,37.021,37.021,0,0,0-1.53-5.12,43.558,43.558,0,0,0-2.385-5.083h0a36.646,36.646,0,0,0-7.651,17.934,37.445,37.445,0,0,0,2.774,19.083s-5.3-7.146-10.922-14.037c-1.377-1.746-2.819-3.438-4.145-5.047s-2.565-3.108-3.664-4.362l-3.627-4.212a32.617,32.617,0,0,0,6.814-18.859,34.593,34.593,0,0,0-6.176-19.872h0a36.571,36.571,0,0,0-6.161,18.5,34.007,34.007,0,0,0,.862,9.459,38.619,38.619,0,0,0,3.422,9.347l-3.707-4.143c-2.2-2.512-5.275-5.721-8.292-8.988l-4.55-4.685c-1.446-1.5-2.81-2.889-4.01-4.048l-3.962-3.9a32.318,32.318,0,0,0,5.189-19.373,30.5,30.5,0,0,0-2.311-9.859,38.644,38.644,0,0,0-2.385-4.832,41.376,41.376,0,0,0-3.264-4.635h0a37.152,37.152,0,0,0-4.474,19.006,35.275,35.275,0,0,0,1.694,9.348,37.88,37.88,0,0,0,4.207,9.022l-4.052-3.806c-1.224-1.133-2.616-2.493-4.172-3.88l-4.871-4.353c-1.644-1.5-3.341-2.934-4.936-4.278l-4.347-3.685c-1.264-1.089-2.375-1.925-3.127-2.543l-1.193-.956a35.347,35.347,0,0,0,3.3-9.88,31.4,31.4,0,0,0,.45-4.995,29.7,29.7,0,0,0-.414-4.924A32.733,32.733,0,0,0,975,2070.72,41.609,41.609,0,0,0,968.357,2061.82Z" transform="translate(-891.563 -2040.777)" fill="#7aabf6"/>
              </g>
              <g id="Group_17191" data-name="Group 17191" transform="translate(679.856 495.945)">
                <path id="Path_193987" data-name="Path 193987" d="M1055.265,1838.419h0a19.109,19.109,0,0,0-6.821,7.6,19.447,19.447,0,0,0-1.858,9.938l-.912-2.767c-.557-1.657-1.35-3.849-2.124-6.047-.834-2.177-1.636-4.366-2.29-5.987l-1.1-2.7a18.788,18.788,0,0,0,4.023-3.7,15.787,15.787,0,0,0,2.524-4.525,18.062,18.062,0,0,0,.221-10.975h0a19.441,19.441,0,0,0-6.127,8.218,17.862,17.862,0,0,0-.718,2.37,18.422,18.422,0,0,0-.432,2.484,19.075,19.075,0,0,0-.092,2.566q.02.651.084,1.311c.04.441.081.89.145,1.339l-.168-.413c-.108-.263-.256-.641-.456-1.085l-1.432-3.272c-.262-.594-.517-1.192-.769-1.746l-.709-1.506-.692-1.469a19.844,19.844,0,0,0,.146-2.769,18.394,18.394,0,0,0-.3-2.643,15.285,15.285,0,0,0-1.734-4.857,17.27,17.27,0,0,0-1.428-2.144,13.645,13.645,0,0,0-1.777-1.914,19.284,19.284,0,0,0-4.535-3.013h0c-.249,7.592,2.831,13.509,9.188,17.548l1.378,2.926c.4.884.846,1.925,1.335,3.035s1.024,2.288,1.5,3.493l1.433,3.52c.234.56.446,1.106.639,1.628l.555,1.465,1.147,3.025a18.738,18.738,0,0,0-3.514-3.8,13.987,13.987,0,0,0-2.044-1.385,15.758,15.758,0,0,0-2.209-1.029,16,16,0,0,0-4.8-.988,19.835,19.835,0,0,0-5.241.48h0a20.71,20.71,0,0,0,3.529,3.788,17.2,17.2,0,0,0,2.056,1.44,17.473,17.473,0,0,0,2.2,1.146,19.511,19.511,0,0,0,10.345,1.279l.969,2.742c.6,1.638,1.305,3.856,2.039,6.064.374,1.1.7,2.219,1.024,3.26l.876,2.849.8,2.795a19.843,19.843,0,0,0-1.484-2.189,17.162,17.162,0,0,0-1.734-1.865,15.719,15.719,0,0,0-4.043-2.747,17.778,17.778,0,0,0-9.98-1.335h0a18.8,18.8,0,0,0,3.24,4.1,16.954,16.954,0,0,0,4.051,2.937,18.391,18.391,0,0,0,4.793,1.692,20.7,20.7,0,0,0,5.43.352l.22.769c.144.488.34,1.188.561,2.032.445,1.688,1.071,3.929,1.618,6.191l.822,3.317.676,2.9c.4,1.7.643,2.837.643,2.837a16.74,16.74,0,0,0-6.831-7.256,16.365,16.365,0,0,0-4.616-1.694,19.884,19.884,0,0,0-5.257-.326h0a20.25,20.25,0,0,0,2.965,4.346,17.487,17.487,0,0,0,8.556,5.205,20.48,20.48,0,0,0,5.391.689l.616,2.843.591,2.922c.22,1.069.447,2.21.656,3.354.885,4.57,1.621,9.166,1.621,9.166a17.953,17.953,0,0,0-2.717-4.411,15.735,15.735,0,0,0-3.692-3.226,17.786,17.786,0,0,0-9.742-2.607,21.037,21.037,0,0,0,1.235,2.4,18.05,18.05,0,0,0,1.477,2.135,17.769,17.769,0,0,0,3.68,3.436,19.05,19.05,0,0,0,9.916,3.249l.218,1.342c.13.855.314,2.077.536,3.543.425,2.935.97,6.851,1.414,10.78s.829,7.864,1.06,10.819.324,4.926.324,4.926l.486-.021s-.064-1.4-.217-3.5-.387-4.885-.672-7.67c-.133-1.393-.3-2.784-.436-4.089l-.425-3.562-.449-3.47a17.412,17.412,0,0,0,8.449-6.221,18.118,18.118,0,0,0,3.206-10.277h0a18.954,18.954,0,0,0-8.159,6.114,18.236,18.236,0,0,0-2.407,4.342,19.182,19.182,0,0,0-.76,2.446,20.59,20.59,0,0,0-.467,2.618l-.4-2.885c-.261-1.728-.6-4.034-.984-6.332-.093-.575-.187-1.15-.279-1.716l-.29-1.659-.517-2.941-.539-2.863a19.007,19.007,0,0,0,4.681-2.8,16.3,16.3,0,0,0,5.475-8.7,19.243,19.243,0,0,0,.487-2.727,22.417,22.417,0,0,0,.084-2.906h0a19.011,19.011,0,0,0-7.8,6.57,17.889,17.889,0,0,0-2.159,4.469,20.089,20.089,0,0,0-.949,5.124l-.151-.787-.418-2.07c-.176-.856-.368-1.857-.6-2.925l-.725-3.345c-.5-2.276-1.045-4.542-1.44-6.245l-.705-2.826a19.04,19.04,0,0,0,4.512-3.074,16.281,16.281,0,0,0,4.94-9.031,19.8,19.8,0,0,0,.307-2.763,18.673,18.673,0,0,0-.094-2.923h0a19.149,19.149,0,0,0-7.376,7.062,18.744,18.744,0,0,0-1.886,4.6,20.876,20.876,0,0,0-.642,5.172s-.274-1.133-.734-2.819l-.772-2.885c-.279-1.056-.616-2.172-.932-3.294s-.629-2.244-.957-3.286l-.877-2.854c-.5-1.674-.877-2.778-.877-2.778a16.428,16.428,0,0,0,8.59-12.754c.053-.454.092-.915.112-1.382s.008-.937-.012-1.414A22.928,22.928,0,0,0,1055.265,1838.419Z" transform="translate(-1025.305 -1810.714)" fill="#a1bcfd"/>
              </g>
              <path id="Path_193988" data-name="Path 193988" d="M408.626,2084.315v17.93c0,9.9,24.581,17.931,54.9,17.931s54.9-8.028,54.9-17.931v-17.93Z" transform="translate(-156.571 -1556.628)" fill="#efa500"/>
              <ellipse id="Ellipse_2666" data-name="Ellipse 2666" cx="54.903" cy="17.931" rx="54.903" ry="17.931" transform="translate(252.055 509.757)" fill="#fcb300"/>
              <path id="Path_193989" data-name="Path 193989" d="M463.529,1828.538a54.9,54.9,0,0,0-54.9,54.9,55.552,55.552,0,0,0,.311,5.855c1.45,19.652,9.584,59.7,54.591,97.221,45.008-37.521,53.141-77.569,54.592-97.221a55.544,55.544,0,0,0,.311-5.855A54.9,54.9,0,0,0,463.529,1828.538Zm0,85.022a24.7,24.7,0,1,1,24.7-24.7A24.7,24.7,0,0,1,463.529,1913.56Z" transform="translate(-156.571 -1458.829)" fill="url(#linear-gradient)"/>
              <g id="Group_17192" data-name="Group 17192" transform="translate(0 504.608)">
                <path id="Path_193990" data-name="Path 193990" d="M130.721,2240.542s9.51-24.907-1.685-53.174-17.387-23.336-24.79-43.278-26.8-23.868-37.084-30.868S45.9,2083.273,42.2,2073.295s-25.546-34.447-38.165-23.652,12.234,33.419,21.352,51.38,7.574,43.846,3.079,53-3.967,30.642,7.48,39.193,24.193,8.869,27.4,20.6-1.411,34.934,23.242,43.987S130.721,2240.542,130.721,2240.542Z" transform="translate(-0.533 -2046.948)" fill="#1649cc"/>
                <path id="Path_193991" data-name="Path 193991" d="M146.959,2315.688c-16.168-74.52-83.381-177.261-84.058-178.291l.755-.5c.678,1.031,67.982,103.912,84.186,178.594Z" transform="translate(-24.38 -2081.343)" fill="#fff"/>
              </g>
              <path id="Path_193992" data-name="Path 193992" d="M108.975,2224.476s50.5-62.089,61.261-96.859,2.484-134.114,0-176.334,34.293-89.409,53.572-110.105,22.591-25.664,30.041-24.008,24.008,25.664,11.59,59.606-25.664,41.392-25.664,41.392,25.664,24.008,19.041,81.13q-.538,4.642-1.153,8.994a191.257,191.257,0,0,1-47.583,101.373l-4.247,4.707-21.524,148.187Z" transform="translate(-41.997 -1454.369)" fill="#fff"/>
              <path id="Path_193993" data-name="Path 193993" d="M658.607,1966.69s35.115,19.132,35.943,46.451-26.492,44.136-43.049,53.481-30.631,12.657-41.393,6.034-.828-35.437,11.59-51.246,36.909-29.056,36.909-29.056Z" transform="translate(-231.855 -1511.653)" fill="#fff"/>
              <path id="Path_193994" data-name="Path 193994" d="M658.607,1886.416s29.32,21.524,30.148,48.844-20.7,41.743-37.254,51.088-30.631,12.657-41.393,6.034-.828-35.437,11.59-51.246,36.909-29.056,36.909-29.056Z" transform="translate(-231.855 -1480.959)" fill="#fff"/>
              <path id="Path_193995" data-name="Path 193995" d="M632.837,2041.752q-.707,0-1.4-.033l.043-.9c8.074.383,17.8-2.695,29.708-9.417,11.019-6.22,23.273-14.187,30.6-26.127l.77.473c-7.436,12.114-19.807,20.165-30.927,26.441C650.247,2038.614,640.807,2041.752,632.837,2041.752Z" transform="translate(-241.765 -1526.406)" fill="#00278a"/>
              <path id="Path_193996" data-name="Path 193996" d="M647.382,2124.8l-.206-.879c5.924-1.394,12.477-4.145,20.031-8.408,9.095-5.133,19.527-11.514,27.946-19.926l.639.639c-8.5,8.488-18.994,14.911-28.142,20.074C660.022,2120.607,653.392,2123.387,647.382,2124.8Z" transform="translate(-247.783 -1560.938)" fill="#00278a"/>
            </g>
          </g>
        </g>
        <path id="Path_193998" data-name="Path 193998" d="M1165.616,2336.226c7.345-9.2,12.919-20.638,11.805-32.358-1.585-16.68-16.732-29.663-33.031-33.543s-33.422-.425-49.493,4.309c-29.68,8.743-60.28,23.964-73.589,51.9-5.874,12.327-7.318,28.379,1.741,38.6,7.728,8.716,20.493,10.538,32.132,11.026C1095.79,2377.853,1140.258,2367.99,1165.616,2336.226Z" transform="translate(272.507 -1585.358) rotate(3)" fill="url(#linear-gradient-2)"/>
        <path id="Path_193999" data-name="Path 193999" d="M1125.355,2317.97c5.361-6.715,9.429-15.063,8.616-23.617-1.156-12.174-12.212-21.65-24.108-24.482s-24.393-.31-36.123,3.145c-21.662,6.381-44,17.49-53.71,37.877-4.287,9-5.341,20.713,1.271,28.17,5.64,6.361,14.957,7.691,23.451,8.047C1074.391,2348.352,1106.847,2341.154,1125.355,2317.97Z" transform="translate(124.46 -1511.695) rotate(3)" fill="url(#linear-gradient-2)"/>
      </g>
    </g>
    <path id="Path_195299" data-name="Path 195299" d="M0,0H23l.044,129.537L-.112,132.557Z" transform="translate(1287 577.524)" fill="#98aeeb" opacity="0.65"/>
    <path id="Path_195300" data-name="Path 195300" d="M-.671-.187,23.042-.535Z" transform="translate(1221.188 655.269) rotate(-90)" fill="#98aeeb"/>
    <path id="Path_195301" data-name="Path 195301" d="M-.529.084,150.464-.177,150,23H0Z" transform="translate(1221 632)" fill="#98aeeb" opacity="0.65"/>
  </g>
</svg>
